<mxfile host="app.diagrams.net" modified="2020-07-15T09:48:27.249Z" agent="5.0 (Windows NT 10.0; Win64; x64) AppleWebKit/537.36 (KHTML, like Gecko) Chrome/83.0.4103.116 Safari/537.36" etag="bxnjfKwHd2Q7HO5K4I2L" version="13.4.4" type="github">
  <diagram id="7Lpw1YlAb3dBw3zPXyh0" name="第 1 页">
    <mxGraphModel dx="1673" dy="895" grid="1" gridSize="10" guides="1" tooltips="1" connect="1" arrows="1" fold="1" page="1" pageScale="1" pageWidth="1200" pageHeight="3000" math="0" shadow="0">
      <root>
        <mxCell id="0" />
        <mxCell id="1" parent="0" />
        <mxCell id="XXFE5D08xe1anR7tmBYG-6" style="edgeStyle=orthogonalEdgeStyle;rounded=0;orthogonalLoop=1;jettySize=auto;html=1;" edge="1" parent="1" source="XXFE5D08xe1anR7tmBYG-1" target="XXFE5D08xe1anR7tmBYG-5">
          <mxGeometry relative="1" as="geometry">
            <Array as="points">
              <mxPoint x="225" y="200" />
              <mxPoint x="225" y="160" />
            </Array>
          </mxGeometry>
        </mxCell>
        <mxCell id="XXFE5D08xe1anR7tmBYG-7" value="&lt;font style=&quot;font-size: 16px&quot;&gt;/login&lt;br&gt;登陆&lt;/font&gt;" style="edgeLabel;html=1;align=center;verticalAlign=middle;resizable=0;points=[];" vertex="1" connectable="0" parent="XXFE5D08xe1anR7tmBYG-6">
          <mxGeometry x="-0.2037" y="-1" relative="1" as="geometry">
            <mxPoint y="16" as="offset" />
          </mxGeometry>
        </mxCell>
        <mxCell id="XXFE5D08xe1anR7tmBYG-9" value="&lt;pre style=&quot;font-family: &amp;#34;courier new&amp;#34; ; font-size: 10.5pt&quot;&gt;doFilter&lt;/pre&gt;" style="edgeLabel;html=1;align=center;verticalAlign=middle;resizable=0;points=[];" vertex="1" connectable="0" parent="XXFE5D08xe1anR7tmBYG-6">
          <mxGeometry x="0.304" y="2" relative="1" as="geometry">
            <mxPoint as="offset" />
          </mxGeometry>
        </mxCell>
        <mxCell id="XXFE5D08xe1anR7tmBYG-1" value="Actor" style="shape=umlActor;verticalLabelPosition=bottom;verticalAlign=top;html=1;" vertex="1" parent="1">
          <mxGeometry x="60" y="170" width="30" height="60" as="geometry" />
        </mxCell>
        <mxCell id="XXFE5D08xe1anR7tmBYG-2" value="&lt;p style=&quot;background-color: rgb(255 , 255 , 255) ; font-family: &amp;#34;courier new&amp;#34; ; font-size: 10.5pt ; line-height: 120%&quot;&gt;UsernamePassword&lt;br&gt;AuthenticationFilter&lt;/p&gt;" style="shape=umlLifeline;perimeter=lifelinePerimeter;whiteSpace=wrap;html=1;container=1;collapsible=0;recursiveResize=0;outlineConnect=0;align=center;" vertex="1" parent="1">
          <mxGeometry x="610" y="80" width="350" height="380" as="geometry" />
        </mxCell>
        <mxCell id="XXFE5D08xe1anR7tmBYG-10" value="" style="html=1;points=[];perimeter=orthogonalPerimeter;" vertex="1" parent="XXFE5D08xe1anR7tmBYG-2">
          <mxGeometry x="170" y="55" width="10" height="80" as="geometry" />
        </mxCell>
        <mxCell id="XXFE5D08xe1anR7tmBYG-5" value="&lt;p style=&quot;background-color: rgb(255 , 255 , 255) ; font-family: &amp;#34;courier new&amp;#34; ; font-size: 10.5pt&quot;&gt;AbstractAuthentication&lt;br&gt;ProcessingFilter&lt;/p&gt;" style="shape=umlLifeline;perimeter=lifelinePerimeter;whiteSpace=wrap;html=1;container=1;collapsible=0;recursiveResize=0;outlineConnect=0;" vertex="1" parent="1">
          <mxGeometry x="350" y="80" width="220" height="380" as="geometry" />
        </mxCell>
        <mxCell id="XXFE5D08xe1anR7tmBYG-8" value="" style="html=1;points=[];perimeter=orthogonalPerimeter;" vertex="1" parent="XXFE5D08xe1anR7tmBYG-5">
          <mxGeometry x="105" y="70" width="15" height="50" as="geometry" />
        </mxCell>
        <mxCell id="XXFE5D08xe1anR7tmBYG-13" style="edgeStyle=orthogonalEdgeStyle;rounded=0;orthogonalLoop=1;jettySize=auto;html=1;entryX=-0.2;entryY=0.363;entryDx=0;entryDy=0;entryPerimeter=0;" edge="1" parent="1" source="XXFE5D08xe1anR7tmBYG-8" target="XXFE5D08xe1anR7tmBYG-10">
          <mxGeometry relative="1" as="geometry" />
        </mxCell>
        <mxCell id="XXFE5D08xe1anR7tmBYG-14" value="&lt;pre style=&quot;font-family: &amp;#34;courier new&amp;#34; ; font-size: 10.5pt&quot;&gt;attemptAuthentication&lt;/pre&gt;" style="edgeLabel;html=1;align=center;verticalAlign=middle;resizable=0;points=[];" vertex="1" connectable="0" parent="XXFE5D08xe1anR7tmBYG-13">
          <mxGeometry x="0.1444" relative="1" as="geometry">
            <mxPoint as="offset" />
          </mxGeometry>
        </mxCell>
        <mxCell id="XXFE5D08xe1anR7tmBYG-15" value="&lt;pre style=&quot;background-color: rgb(255 , 255 , 255) ; font-family: &amp;#34;courier new&amp;#34; ; font-size: 10.5pt&quot;&gt;ProviderManager&lt;/pre&gt;" style="shape=umlLifeline;perimeter=lifelinePerimeter;whiteSpace=wrap;html=1;container=1;collapsible=0;recursiveResize=0;outlineConnect=0;" vertex="1" parent="1">
          <mxGeometry x="1120" y="70" width="110" height="400" as="geometry" />
        </mxCell>
        <mxCell id="XXFE5D08xe1anR7tmBYG-16" value="" style="html=1;points=[];perimeter=orthogonalPerimeter;" vertex="1" parent="XXFE5D08xe1anR7tmBYG-15">
          <mxGeometry x="45" y="100" width="10" height="80" as="geometry" />
        </mxCell>
        <mxCell id="XXFE5D08xe1anR7tmBYG-17" style="edgeStyle=orthogonalEdgeStyle;rounded=0;orthogonalLoop=1;jettySize=auto;html=1;entryX=0;entryY=0.15;entryDx=0;entryDy=0;entryPerimeter=0;" edge="1" parent="1" source="XXFE5D08xe1anR7tmBYG-10" target="XXFE5D08xe1anR7tmBYG-16">
          <mxGeometry relative="1" as="geometry" />
        </mxCell>
        <mxCell id="XXFE5D08xe1anR7tmBYG-18" value="&lt;pre style=&quot;font-family: &amp;#34;courier new&amp;#34; ; font-size: 10.5pt&quot;&gt;authenticate(authRequest)&lt;/pre&gt;" style="edgeLabel;html=1;align=center;verticalAlign=middle;resizable=0;points=[];" vertex="1" connectable="0" parent="XXFE5D08xe1anR7tmBYG-17">
          <mxGeometry x="-0.195" y="2" relative="1" as="geometry">
            <mxPoint as="offset" />
          </mxGeometry>
        </mxCell>
        <mxCell id="XXFE5D08xe1anR7tmBYG-20" value="&lt;pre style=&quot;background-color: rgb(255 , 255 , 255) ; font-family: &amp;#34;courier new&amp;#34; ; font-size: 10.5pt&quot;&gt;&lt;pre style=&quot;font-family: &amp;#34;courier new&amp;#34; ; font-size: 10.5pt&quot;&gt;AbstractUserDetailsAuthenticationProvider&lt;/pre&gt;&lt;/pre&gt;" style="shape=umlLifeline;perimeter=lifelinePerimeter;whiteSpace=wrap;html=1;container=1;collapsible=0;recursiveResize=0;outlineConnect=0;" vertex="1" parent="1">
          <mxGeometry x="1460" y="60" width="210" height="580" as="geometry" />
        </mxCell>
        <mxCell id="XXFE5D08xe1anR7tmBYG-21" value="" style="html=1;points=[];perimeter=orthogonalPerimeter;" vertex="1" parent="XXFE5D08xe1anR7tmBYG-20">
          <mxGeometry x="100" y="100" width="10" height="210" as="geometry" />
        </mxCell>
        <mxCell id="XXFE5D08xe1anR7tmBYG-19" value="&lt;pre style=&quot;color: rgb(0 , 0 , 0) ; font-style: normal ; font-weight: 400 ; letter-spacing: normal ; text-align: center ; text-indent: 0px ; text-transform: none ; word-spacing: 0px ; font-family: &amp;#34;courier new&amp;#34; ; font-size: 10.5pt&quot;&gt;#authRequest是通过username,&lt;/pre&gt;&lt;pre style=&quot;color: rgb(0 , 0 , 0) ; font-style: normal ; font-weight: 400 ; letter-spacing: normal ; text-align: center ; text-indent: 0px ; text-transform: none ; word-spacing: 0px ; font-family: &amp;#34;courier new&amp;#34; ; font-size: 10.5pt&quot;&gt;password构造出来的token&lt;/pre&gt;" style="text;whiteSpace=wrap;html=1;" vertex="1" parent="1">
          <mxGeometry x="930" width="420" height="60" as="geometry" />
        </mxCell>
        <mxCell id="XXFE5D08xe1anR7tmBYG-22" style="edgeStyle=orthogonalEdgeStyle;rounded=0;orthogonalLoop=1;jettySize=auto;html=1;entryX=-0.182;entryY=0.173;entryDx=0;entryDy=0;entryPerimeter=0;" edge="1" parent="1" source="XXFE5D08xe1anR7tmBYG-16" target="XXFE5D08xe1anR7tmBYG-21">
          <mxGeometry relative="1" as="geometry" />
        </mxCell>
        <mxCell id="XXFE5D08xe1anR7tmBYG-23" value="&lt;div style=&quot;font-size: 13px;&quot;&gt;provider.authenticate(authentication)&lt;/div&gt;" style="edgeLabel;html=1;align=center;verticalAlign=middle;resizable=0;points=[];fontSize=13;fontFamily=Verdana;" vertex="1" connectable="0" parent="XXFE5D08xe1anR7tmBYG-22">
          <mxGeometry x="-0.1307" y="8" relative="1" as="geometry">
            <mxPoint x="30.53" y="-16.060000000000002" as="offset" />
          </mxGeometry>
        </mxCell>
        <mxCell id="XXFE5D08xe1anR7tmBYG-24" value="&lt;pre style=&quot;background-color: rgb(255 , 255 , 255) ; font-family: &amp;#34;courier new&amp;#34; ; font-size: 10.5pt&quot;&gt;DaoAuthenticationProvider&lt;/pre&gt;" style="shape=umlLifeline;perimeter=lifelinePerimeter;whiteSpace=wrap;html=1;container=1;collapsible=0;recursiveResize=0;outlineConnect=0;fontFamily=Verdana;fontSize=13;" vertex="1" parent="1">
          <mxGeometry x="1880" y="60" width="180" height="480" as="geometry" />
        </mxCell>
        <mxCell id="XXFE5D08xe1anR7tmBYG-25" value="" style="html=1;points=[];perimeter=orthogonalPerimeter;fontFamily=Verdana;fontSize=13;" vertex="1" parent="XXFE5D08xe1anR7tmBYG-24">
          <mxGeometry x="80" y="75" width="15" height="105" as="geometry" />
        </mxCell>
        <mxCell id="XXFE5D08xe1anR7tmBYG-28" value="&lt;pre style=&quot;background-color: rgb(255 , 255 , 255) ; font-family: &amp;#34;courier new&amp;#34; ; font-size: 10.5pt&quot;&gt;UserDetailsService&lt;/pre&gt;" style="shape=umlLifeline;perimeter=lifelinePerimeter;whiteSpace=wrap;html=1;container=1;collapsible=0;recursiveResize=0;outlineConnect=0;fontFamily=Helvetica;fontSize=13;" vertex="1" parent="1">
          <mxGeometry x="2250" y="60" width="100" height="300" as="geometry" />
        </mxCell>
        <mxCell id="XXFE5D08xe1anR7tmBYG-31" value="" style="html=1;points=[];perimeter=orthogonalPerimeter;fontFamily=Helvetica;fontSize=13;" vertex="1" parent="XXFE5D08xe1anR7tmBYG-28">
          <mxGeometry x="45" y="70" width="10" height="80" as="geometry" />
        </mxCell>
        <mxCell id="XXFE5D08xe1anR7tmBYG-29" style="edgeStyle=orthogonalEdgeStyle;rounded=0;orthogonalLoop=1;jettySize=auto;html=1;entryX=-0.239;entryY=0.174;entryDx=0;entryDy=0;entryPerimeter=0;fontFamily=Helvetica;fontSize=13;" edge="1" parent="1" source="XXFE5D08xe1anR7tmBYG-21" target="XXFE5D08xe1anR7tmBYG-25">
          <mxGeometry relative="1" as="geometry">
            <Array as="points">
              <mxPoint x="1767" y="175" />
              <mxPoint x="1767" y="153" />
            </Array>
          </mxGeometry>
        </mxCell>
        <mxCell id="XXFE5D08xe1anR7tmBYG-30" value="&lt;span style=&quot;font-size: 14px ; color: rgb(0 , 0 , 128) ; font-weight: bold&quot;&gt;this&lt;/span&gt;&lt;span style=&quot;font-size: 14px&quot;&gt;.retrieveUser(username, authentication)&lt;/span&gt;" style="edgeLabel;html=1;align=center;verticalAlign=middle;resizable=0;points=[];fontSize=13;fontFamily=Helvetica;" vertex="1" connectable="0" parent="XXFE5D08xe1anR7tmBYG-29">
          <mxGeometry x="-0.1321" y="10" relative="1" as="geometry">
            <mxPoint x="1" as="offset" />
          </mxGeometry>
        </mxCell>
        <mxCell id="XXFE5D08xe1anR7tmBYG-35" style="edgeStyle=orthogonalEdgeStyle;rounded=0;orthogonalLoop=1;jettySize=auto;html=1;entryX=0.024;entryY=0.121;entryDx=0;entryDy=0;entryPerimeter=0;fontFamily=Helvetica;fontSize=13;" edge="1" parent="1" source="XXFE5D08xe1anR7tmBYG-25" target="XXFE5D08xe1anR7tmBYG-31">
          <mxGeometry relative="1" as="geometry">
            <Array as="points">
              <mxPoint x="2135" y="160" />
              <mxPoint x="2135" y="140" />
            </Array>
          </mxGeometry>
        </mxCell>
        <mxCell id="XXFE5D08xe1anR7tmBYG-36" value="&lt;div style=&quot;font-size: 10.5pt;&quot;&gt;loadUserByUsername(username)&lt;/div&gt;" style="edgeLabel;html=1;align=center;verticalAlign=middle;resizable=0;points=[];fontSize=13;fontFamily=Helvetica;" vertex="1" connectable="0" parent="XXFE5D08xe1anR7tmBYG-35">
          <mxGeometry x="0.0878" y="3" relative="1" as="geometry">
            <mxPoint y="2.9400000000000013" as="offset" />
          </mxGeometry>
        </mxCell>
        <mxCell id="XXFE5D08xe1anR7tmBYG-39" style="edgeStyle=orthogonalEdgeStyle;rounded=0;orthogonalLoop=1;jettySize=auto;html=1;entryX=1.141;entryY=0.728;entryDx=0;entryDy=0;entryPerimeter=0;fontFamily=Helvetica;fontSize=13;" edge="1" parent="1" source="XXFE5D08xe1anR7tmBYG-31" target="XXFE5D08xe1anR7tmBYG-25">
          <mxGeometry relative="1" as="geometry" />
        </mxCell>
        <mxCell id="XXFE5D08xe1anR7tmBYG-40" value="return&amp;nbsp;&lt;span style=&quot;font-family: &amp;#34;courier new&amp;#34; ; font-size: 10.5pt&quot;&gt;UserDetails&lt;/span&gt;&amp;nbsp;" style="edgeLabel;html=1;align=center;verticalAlign=middle;resizable=0;points=[];fontSize=13;fontFamily=Helvetica;" vertex="1" connectable="0" parent="XXFE5D08xe1anR7tmBYG-39">
          <mxGeometry x="0.1669" relative="1" as="geometry">
            <mxPoint x="-1" as="offset" />
          </mxGeometry>
        </mxCell>
        <mxCell id="XXFE5D08xe1anR7tmBYG-41" style="edgeStyle=orthogonalEdgeStyle;rounded=0;orthogonalLoop=1;jettySize=auto;html=1;fontFamily=Helvetica;fontSize=13;" edge="1" parent="1" source="XXFE5D08xe1anR7tmBYG-25">
          <mxGeometry relative="1" as="geometry">
            <mxPoint x="1574" y="230" as="targetPoint" />
            <Array as="points">
              <mxPoint x="1765" y="210" />
              <mxPoint x="1765" y="230" />
            </Array>
          </mxGeometry>
        </mxCell>
        <mxCell id="XXFE5D08xe1anR7tmBYG-42" value="return&amp;nbsp;&lt;span style=&quot;font-family: &amp;#34;courier new&amp;#34; ; font-size: 10.5pt&quot;&gt;UserDetails&lt;/span&gt;&amp;nbsp;" style="edgeLabel;html=1;align=center;verticalAlign=middle;resizable=0;points=[];fontSize=13;fontFamily=Helvetica;" vertex="1" connectable="0" parent="XXFE5D08xe1anR7tmBYG-41">
          <mxGeometry x="-0.1829" relative="1" as="geometry">
            <mxPoint as="offset" />
          </mxGeometry>
        </mxCell>
        <mxCell id="XXFE5D08xe1anR7tmBYG-44" value="" style="html=1;points=[];perimeter=orthogonalPerimeter;fontFamily=Verdana;fontSize=13;" vertex="1" parent="1">
          <mxGeometry x="1962.5" y="300" width="15" height="105" as="geometry" />
        </mxCell>
        <mxCell id="XXFE5D08xe1anR7tmBYG-46" style="edgeStyle=orthogonalEdgeStyle;rounded=0;orthogonalLoop=1;jettySize=auto;html=1;fontFamily=Helvetica;fontSize=13;" edge="1" parent="1" source="XXFE5D08xe1anR7tmBYG-21" target="XXFE5D08xe1anR7tmBYG-44">
          <mxGeometry relative="1" as="geometry">
            <mxPoint x="1920" y="360" as="targetPoint" />
            <Array as="points">
              <mxPoint x="1650" y="310" />
              <mxPoint x="1650" y="310" />
            </Array>
          </mxGeometry>
        </mxCell>
        <mxCell id="XXFE5D08xe1anR7tmBYG-47" value="&lt;div style=&quot;font-size: 10.5pt;&quot;&gt;&lt;span style=&quot;color: #000080 ; font-weight: bold&quot;&gt;this&lt;/span&gt;.additionalAuthenticationChecks(user,authentication);&lt;br&gt;&lt;/div&gt;" style="edgeLabel;html=1;align=center;verticalAlign=middle;resizable=0;points=[];fontSize=13;fontFamily=Helvetica;" vertex="1" connectable="0" parent="XXFE5D08xe1anR7tmBYG-46">
          <mxGeometry x="-0.0741" relative="1" as="geometry">
            <mxPoint x="18.82" as="offset" />
          </mxGeometry>
        </mxCell>
      </root>
    </mxGraphModel>
  </diagram>
</mxfile>
